<?xml version="1.0" standalone="no"?><!DOCTYPE svg PUBLIC "-//W3C//DTD SVG 1.1//EN" "http://www.w3.org/Graphics/SVG/1.1/DTD/svg11.dtd"><svg t="1596598388282" class="icon" viewBox="0 0 1024 1024" version="1.1" xmlns="http://www.w3.org/2000/svg" p-id="2170" xmlns:xlink="http://www.w3.org/1999/xlink" width="200" height="200"><defs><style type="text/css"></style></defs><path d="M468.622222 727.523556c0.028444-10.723556 4.664889-20.963556 12.885334-28.558223L950.129778 267.918222a46.734222 46.734222 0 0 1 61.013333 0.995556 38.115556 38.115556 0 0 1 1.052445 56.120889L543.601778 756.081778c-8.220444 7.623111-19.399111 11.918222-31.061334 11.918222-11.662222 0-22.840889-4.295111-31.032888-11.946667a39.111111 39.111111 0 0 1-12.885334-28.529777zM0 296.476444c0.028444-10.695111 4.664889-20.963556 12.885333-28.558222C21.077333 260.295111 32.256 256 43.946667 256c11.662222 0 22.840889 4.295111 31.032889 11.946667l468.622222 431.018666a38.115556 38.115556 0 0 1-1.080889 56.120889 46.734222 46.734222 0 0 1-61.013333 0.995556L12.885333 325.034667A39.111111 39.111111 0 0 1 0 296.476444z" fill="#888888" p-id="2171"></path></svg>